<?xml version="1.0" encoding="UTF-8"?>
<svg preserveAspectRatio="none"  viewBox="0 0 360 256" version="1.1" xmlns="http://www.w3.org/2000/svg" xmlns:xlink="http://www.w3.org/1999/xlink">
    <title>Best XI 230x256</title>
    <g id="Best-XI-230x256" stroke="none" stroke-width="1" fill="none" fill-rule="evenodd">
        <g id="BestXIPitch">
            <polygon id="Rectangle" fill="#19460A" fill-rule="nonzero" points="30 0 330 0 360 248.754717 0 248.754717"></polygon>
            <path d="M198.887684,0.483018868 L198.887684,248.271698 L160.861091,246.339623 L164.113366,0.483018868 L198.887684,0.483018868 Z M66.2949615,0.483018868 L35.523443,247.064151 L2,247.064151 L31.5206438,0.483018868 L66.2949615,0.483018868 Z M329.979356,0.483018868 L359.5,247.064151 L325.976557,247.064151 L295.205039,0.483018868 L329.979356,0.483018868 Z M262.43212,0.483018868 L287.449615,247.064151 L248.172148,247.064151 L227.657803,0.483018868 L262.43212,0.483018868 Z M133.341848,0.483018868 L112.827502,247.064151 L73.550035,247.064151 L98.5675295,0.483018868 L133.341848,0.483018868 Z" id="Combined-Shape" fill="#1E4A0F" fill-rule="nonzero"></path>
            <g id="Goal-Lines" transform="translate(94.000000, 0.000000)" stroke="#3F6A30" stroke-width="1.5">
                <path d="M126.456508,48.8105767 L46.5577537,49.0337198 C46.9991717,54.3492536 51.5636525,59.2783708 58.5718165,62.9171925 C65.797359,66.6688831 75.6463195,69.0475472 86.499104,69.0475472 L87.166434,69.04455 C97.9546505,68.9477685 107.712431,66.5019484 114.826224,62.7067547 C118.47323,60.7610846 121.422552,58.4625292 123.445752,55.9422087 C125.240944,53.7059193 126.303859,51.2967347 126.456508,48.8105767 Z" id="Path" fill-opacity="0" fill="#30651E" fill-rule="nonzero"></path>
                <polyline id="Path" points="5.2424023 0 0 48.7849057 172.5 48.7849057 167.756874 0"></polyline>
                <polyline id="Path-2" points="39.25 0 38 16.9056604 134.75 16.9056604 133.75 0"></polyline>
            </g>
            <polygon id="Pitch-Outline" fill-opacity="0" fill="#376711" fill-rule="nonzero" points="30 0 330 0 360 248.754717 0 248.754717"></polygon>
            <path d="M99.025011,254.492832 L261.47499,254.493411 C261.463597,241.714746 252.187613,229.704663 237.327563,220.924621 C222.641509,212.247384 202.486288,206.722264 180.25,206.722264 L178.900843,206.729045 C156.952005,206.949574 137.111366,212.549077 122.679696,221.218173 C108.108151,229.971292 99.036555,241.856402 99.025011,254.492832 Z" id="Combined-Shape" stroke="#3F6A30" stroke-width="1.5" fill-opacity="0" fill="#30651E" fill-rule="nonzero"></path>
            <g id="WS-Logo" transform="translate(287.500000, 226.535849)" fill-rule="nonzero">
                <g id="negative_master">
                    <path d="M0.263916876,11.4618767 C0.25831864,11.4340226 0.234486146,11.3317836 0.191939547,11.1553208 C0.149712846,10.9788579 0.128439547,10.8457057 0.128439547,10.7561862 C0.128439547,10.5571824 0.190819899,10.392795 0.316220403,10.2625409 C0.441460957,10.1324478 0.60636902,10.0670792 0.810944585,10.0670792 C1.21177834,10.0670792 1.45106297,10.2767094 1.52911839,10.6956478 L2.24729219,14.00159 L2.26600629,14.00159 L3.26601133,10.7901585 C3.34934509,10.5294893 3.45379219,10.3438491 3.57903274,10.2332377 C3.7042733,10.1224654 3.86214357,10.0670792 4.05296347,10.0670792 C4.24234383,10.0670792 4.39669521,10.1221434 4.51633753,10.2321107 C4.63597985,10.342078 4.73770781,10.5282013 4.82120151,10.7901585 L5.82312595,14.00159 L5.83992065,14.00159 L6.55809445,10.6956478 C6.63742945,10.2767094 6.8767141,10.0670792 7.2761083,10.0670792 C7.483403,10.0670792 7.64943075,10.1324478 7.7740315,10.2625409 C7.89863225,10.392795 7.96085265,10.5571824 7.96085265,10.7561862 C7.96085265,10.9088201 7.9149471,11.1440503 7.823136,11.4618767 C7.77867005,11.6426868 7.71037155,11.9226767 7.61856045,12.3021685 C7.52674935,12.6818214 7.38807305,13.2525887 7.20301135,14.0143094 C7.0179496,14.7760302 6.902466,15.2530918 6.85656045,15.4450113 C6.78138415,15.7782943 6.66670025,16.0049912 6.5121889,16.1254239 C6.3576776,16.2458566 6.1620592,16.306073 5.9254937,16.306073 C5.435568,16.306073 5.10783125,16.0534541 4.94212342,15.5480553 L4.05296347,12.7285132 L4.03424937,12.7285132 L3.15532619,15.5480553 C3.06623425,15.8029283 2.94371284,15.9930767 2.78792191,16.1181786 C2.63197103,16.2436025 2.42323677,16.306073 2.16171914,16.306073 C1.93619017,16.306073 1.74505038,16.2510088 1.58861964,16.1402365 C1.43202896,16.0296251 1.31814483,15.820961 1.24728715,15.514083 C1.11228967,14.9359094 0.972013855,14.3490415 0.826619645,13.7538013 C0.68122544,13.158722 0.54974685,12.6278843 0.432023929,12.1614491 C0.314460957,11.6951749 0.252880352,11.4618767 0.247442065,11.4618767 L0.263916876,11.4618767" id="Fill-1" fill="#84BF41"></path>
                    <path d="M8.22524935,15.616966 L8.22524935,10.3251723 C8.22524935,10.1292277 8.2892292,9.96258618 8.41734885,9.82508679 C8.5454685,9.68807042 8.70413855,9.61932075 8.8935189,9.61932075 C9.0912166,9.61932075 9.2516461,9.68774844 9.3748073,9.82460377 C9.49812845,9.96129811 9.559869,10.1284226 9.559869,10.3261383 L9.559869,11.8680956 L9.5785831,11.8680956 C9.97445845,11.6434918 10.3524194,11.5312704 10.7121461,11.5312704 C11.0261272,11.5312704 11.3084383,11.5887497 11.5593993,11.7033862 C11.8100403,11.8181836 12.0075781,11.9946466 12.1521725,12.2327749 C12.2966071,12.4705811 12.3689043,12.7644176 12.3689043,13.1144453 L12.3689043,15.6172881 C12.3689043,15.8135547 12.306204,15.9771371 12.1811234,16.1088402 C12.0558828,16.2403824 11.8932141,16.306073 11.6929572,16.306073 C11.5038967,16.306073 11.3484257,16.2400604 11.2267041,16.1078742 C11.1051423,15.9758491 11.0443615,15.8124277 11.0443615,15.6179321 L11.0443615,13.4862088 C11.0443615,13.2456654 10.9773425,13.0510088 10.8433048,12.901917 C10.7094269,12.7529862 10.5266046,12.6784402 10.2946776,12.6784402 C10.0739471,12.6784402 9.896403,12.7533082 9.76172545,12.903044 C9.62704785,13.0526189 9.559869,13.2471145 9.559869,13.4862088 L9.559869,15.6179321 C9.559869,15.8138767 9.49812845,15.9774591 9.3748073,16.1090013 C9.2516461,16.2403824 9.0912166,16.306073 8.8935189,16.306073 C8.702699,16.306073 8.54370905,16.2398994 8.4162292,16.1075522 C8.28874935,15.975366 8.22524935,15.8117836 8.22524935,15.616966" id="Fill-2" fill="#84BF41"></path>
                    <path d="M15.0693338,15.0985258 C15.2598338,15.0985258 15.4237821,15.0487749 15.560699,14.9491119 C15.6977758,14.8494491 15.8009433,14.7133987 15.8706813,14.541122 C15.9400995,14.3691673 15.9749685,14.1778918 15.9749685,13.9671346 C15.9749685,13.6427069 15.897073,13.3739874 15.7412821,13.1612981 C15.5853312,12.9484478 15.3614018,12.8378365 15.0693338,12.8294642 C14.7758262,12.8294642 14.5501373,12.9386264 14.392267,13.1571119 C14.2343968,13.3754365 14.1555416,13.645605 14.1555416,13.9671346 C14.1555416,14.28319 14.2329572,14.5514264 14.3881083,14.772005 C14.5432595,14.9924226 14.7585516,15.1068981 15.0338249,15.1154315 C15.0423023,15.1085082 15.04966,15.103839 15.055898,15.1017459 C15.062136,15.0996528 15.0664547,15.0985258 15.0693338,15.0985258 Z M15.0693338,16.3967195 C14.6211549,16.3967195 14.2262393,16.2909383 13.8845869,16.0792151 C13.5429345,15.8678138 13.2801373,15.5767145 13.0965151,15.205917 C12.912733,14.8356025 12.8209219,14.4224604 12.8209219,13.9671346 C12.8209219,13.6295044 12.8730655,13.311839 12.9775126,13.0141383 C13.0817998,12.7162767 13.2324723,12.4564126 13.4295302,12.2342239 C13.6264282,12.0121962 13.8644332,11.8395975 14.1435454,11.7164277 C14.4224975,11.5930968 14.7312003,11.5312704 15.0693338,11.5312704 C15.5119143,11.5369057 15.9034711,11.6499321 16.2436839,11.8708327 C16.5840567,12.0915723 16.8466939,12.3868579 17.0317557,12.7565283 C17.2169774,13.1263598 17.3095881,13.5300025 17.3095881,13.9671346 C17.3052695,14.2936553 17.2510466,14.6024654 17.1465995,14.8940478 C17.0423123,15.1854692 16.8917998,15.4446893 16.6957015,15.6717082 C16.4994433,15.898727 16.262558,16.076317 15.9848854,16.204478 C15.7070529,16.332478 15.402029,16.3967195 15.0693338,16.3967195 L15.0693338,16.3967195 Z" id="Fill-3" fill="#84BF41"></path>
                    <path d="M17.6011763,11.8494189 C17.6234093,11.0144402 18.03384,10.443673 18.8324685,10.136795 C19.1510881,10.0332679 19.4842632,9.98158491 19.8321536,9.98158491 C20.0575226,9.98158491 20.2995264,10.010727 20.5583249,10.0686893 C20.8171235,10.1266516 21.0402532,10.2264755 21.2273942,10.367678 C21.4145353,10.5088805 21.5081058,10.6956478 21.5081058,10.9276579 C21.5081058,11.1150692 21.4492444,11.265127 21.3316814,11.3776704 C21.2141184,11.4902138 21.0586474,11.5520402 20.8652682,11.5631497 C20.7568224,11.5478541 20.5786386,11.5050264 20.3310365,11.4349887 C20.0835944,11.3651119 19.8860567,11.3300126 19.7385831,11.3300126 C19.5717557,11.3300126 19.424602,11.3676881 19.2972821,11.442556 C19.1701222,11.5175849 19.0973451,11.6293233 19.0794308,11.7779321 C19.0794308,11.92799 19.1218174,12.0339321 19.2065907,12.0955975 C19.291364,12.1572629 19.4633098,12.2324528 19.7221083,12.3206843 C19.9697103,12.4034415 20.2133136,12.4855547 20.453238,12.5667019 C20.6931624,12.6481711 20.9188514,12.7539522 21.1303048,12.8842063 C21.3417582,13.0147824 21.5177028,13.1984906 21.6581386,13.4353308 C21.7987342,13.6723321 21.8710315,13.9730918 21.8753501,14.3377711 C21.8753501,14.8703799 21.7297959,15.309444 21.4390075,15.6543195 C20.9924282,16.1492528 20.3740629,16.3967195 19.5839118,16.3967195 C18.9340365,16.3967195 18.3780516,16.2669484 17.9162771,16.0075673 C17.6477217,15.8604075 17.5023274,15.6506164 17.4800944,15.3786767 C17.5023274,15.1836981 17.570626,15.0115824 17.6845101,14.8623296 C17.7985542,14.7129157 17.9530655,14.6380478 18.1480441,14.6380478 C18.2787229,14.6465811 18.4237972,14.6787824 18.583107,14.7348126 C18.7424169,14.7908428 18.9014068,14.846873 19.0599169,14.9029032 C19.2185869,14.9587723 19.3646209,14.9911346 19.4983388,14.9993459 C19.5554408,14.9993459 19.6011864,15.002244 19.6360554,15.0078792 C19.827995,15.0038541 19.9985013,14.9550692 20.1474143,14.8620075 C20.2963274,14.7687849 20.3707041,14.6340226 20.3707041,14.4572377 C20.3707041,14.2767497 20.300806,14.1368352 20.1610101,14.0379774 C20.0212141,13.9392805 19.8398312,13.8550742 19.6171813,13.7848755 C19.5824723,13.772317 19.4479546,13.7301333 19.2134685,13.6588075 C18.9789823,13.5874817 18.7696083,13.5119698 18.5851864,13.4329157 C18.4007645,13.3537006 18.2376159,13.2588679 18.0957405,13.1480956 C17.9233149,13.003834 17.7977544,12.8304302 17.7190592,12.6280453 C17.640364,12.4256604 17.6011763,12.1661183 17.6011763,11.8494189" id="Fill-4" fill="#FFFFFE"></path>
                    <path d="M22.7238828,12.3069987 C23.1760605,11.7900075 23.7829093,11.5312704 24.5441096,11.5312704 C24.7737973,11.5481761 24.9946876,11.5844025 25.2069408,11.6404327 C25.419194,11.6964629 25.6037758,11.7900075 25.7611662,11.9213887 C25.9183967,12.0527698 25.996932,12.2264956 25.996932,12.4416 C25.996932,12.6011572 25.9510265,12.7393006 25.8590554,12.8560302 C25.7670844,12.9727598 25.6452027,13.0353912 25.4934106,13.0437635 C25.4695781,13.0437635 25.4467053,13.0493987 25.4243124,13.0605082 C25.3352204,13.0508478 25.1882267,13.0097912 24.9833312,12.9376604 C24.7784357,12.8653685 24.6148073,12.8294642 24.4921259,12.8294642 C24.1925403,12.8294642 23.9537355,12.9352453 23.7753917,13.1468075 C23.5968879,13.3585308 23.5077959,13.6375547 23.5077959,13.9838792 C23.5077959,14.5066667 23.6902985,14.8536352 24.0554635,15.0244629 C24.1319194,15.0581132 24.260199,15.0870943 24.4399824,15.1109233 C24.66983,15.0954667 24.8809635,15.0528 25.0732229,14.9827623 C25.1037733,14.9742289 25.1610353,14.9550692 25.2445289,14.9248 C25.3281826,14.8948528 25.3881638,14.8797183 25.4243124,14.8797183 C25.5274798,14.8797183 25.6231297,14.9075723 25.7117418,14.9629585 C25.800194,15.0181836 25.8697721,15.0920855 25.9207959,15.1849862 C25.9715,15.2774038 25.996932,15.3762617 25.996932,15.4813987 C25.996932,15.871356 25.6581587,16.153439 24.9804522,16.3273258 C24.7216537,16.3735346 24.5189975,16.3967195 24.3729635,16.3967195 C24.0570629,16.3967195 23.7651549,16.332478 23.4972393,16.204478 C23.2293237,16.076317 22.9961171,15.897922 22.7969798,15.6694541 C22.5980025,15.4411472 22.4444509,15.1833761 22.3366448,14.8963019 C22.2288388,14.6087447 22.1693376,14.3057308 22.1581411,13.9861333 C22.1693376,13.6512402 22.225,13.3351849 22.3251285,13.0381283 C22.4254169,12.7412327 22.558335,12.4974692 22.7238828,12.3069987" id="Fill-5" fill="#FFFFFE"></path>
                    <path d="M28.3787418,15.0985258 C28.5692418,15.0985258 28.7331902,15.0487749 28.8701071,14.9491119 C29.0071839,14.8494491 29.1103514,14.7133987 29.1800894,14.541122 C29.2495076,14.3691673 29.2843766,14.1778918 29.2843766,13.9671346 C29.2843766,13.6427069 29.2064811,13.3739874 29.0506902,13.1612981 C28.8947393,12.9484478 28.6708098,12.8378365 28.3787418,12.8294642 C28.0852342,12.8294642 27.8595454,12.9386264 27.701675,13.1571119 C27.5438048,13.3754365 27.4649496,13.645605 27.4649496,13.9671346 C27.4649496,14.28319 27.5423652,14.5514264 27.6975164,14.772005 C27.8526675,14.9924226 28.0677997,15.1068981 28.343233,15.1154315 C28.3517104,15.1085082 28.359068,15.103839 28.3653061,15.1017459 C28.3715441,15.0996528 28.3758627,15.0985258 28.3787418,15.0985258 Z M28.3787418,16.3967195 C27.9305629,16.3967195 27.5356474,16.2909383 27.193995,16.0792151 C26.8523425,15.8678138 26.5895454,15.5767145 26.4059231,15.205917 C26.2221411,14.8356025 26.13033,14.4224604 26.13033,13.9671346 C26.13033,13.6295044 26.1824736,13.311839 26.2869206,13.0141383 C26.3912078,12.7162767 26.5418803,12.4564126 26.7389383,12.2342239 C26.9358363,12.0121962 27.1738413,11.8395975 27.4529534,11.7164277 C27.7319056,11.5930968 28.0406083,11.5312704 28.3787418,11.5312704 C28.8213224,11.5369057 29.2128791,11.6499321 29.5530919,11.8708327 C29.8934647,12.0915723 30.156102,12.3868579 30.3411637,12.7565283 C30.5263854,13.1263598 30.6189962,13.5300025 30.6189962,13.9671346 C30.6146776,14.2936553 30.5604547,14.6024654 30.4560075,14.8940478 C30.3517204,15.1854692 30.2012078,15.4446893 30.0051096,15.6717082 C29.8088514,15.898727 29.571966,16.076317 29.2941335,16.204478 C29.0164609,16.332478 28.7114371,16.3967195 28.3787418,16.3967195 L28.3787418,16.3967195 Z" id="Fill-6" fill="#FFFFFE"></path>
                    <path d="M31.0559786,12.3377509 C31.0559786,12.1137912 31.1220378,11.9400654 31.2543161,11.8168956 C31.3867544,11.6935648 31.5431851,11.6318994 31.7242481,11.6318994 C31.8746007,11.6318994 32.010398,11.6682868 32.1316398,11.7405786 C32.2527216,11.8131925 32.3390944,11.9181685 32.3905982,12.0561509 C32.6671512,11.7062843 32.9916889,11.5312704 33.3642116,11.5312704 C33.5491133,11.5396428 33.7005857,11.6157987 33.8187884,11.7590943 C33.9368312,11.9027119 33.9960126,12.0674214 33.9960126,12.2535447 C33.9960126,12.4509383 33.9291537,12.595844 33.7957556,12.6884226 C33.6623577,12.7806792 33.4665794,12.8669786 33.2089005,12.9474817 C32.9510617,13.0279849 32.7754371,13.1012428 32.6823464,13.1669333 C32.4876876,13.2986365 32.3905982,13.5330617 32.3905982,13.8703698 L32.3905982,15.564961 C32.3905982,15.8182239 32.3205403,16.0051522 32.1805844,16.1254239 C32.0406284,16.2458566 31.8627645,16.306073 31.6469924,16.306073 C31.4729672,16.2767698 31.330932,16.2007749 31.2208867,16.0782491 C31.1110013,15.9557233 31.0559786,15.7908528 31.0559786,15.5834767 L31.0559786,12.3377509" id="Fill-7" fill="#FFFFFE"></path>
                    <path d="M35.1657242,13.4834717 L36.8840629,13.4834717 C36.8840629,13.3789786 36.8471146,13.2628931 36.7733778,13.1353761 C36.699641,13.0078591 36.5963136,12.8996629 36.4633954,12.8112704 C36.3304773,12.722717 36.1798048,12.6784402 36.0115378,12.6784402 C35.7746524,12.6784402 35.5747153,12.7698918 35.4112468,12.952473 C35.2476184,13.1350541 35.1657242,13.312161 35.1657242,13.4834717 Z M37.5688073,14.4042667 L35.1657242,14.4042667 C35.1657242,14.5884579 35.2485781,14.7586415 35.4142859,14.9148176 C35.5798337,15.0708327 35.8533476,15.1489208 36.2348274,15.1489208 C36.4213287,15.1489208 36.576,15.1257358 36.6993211,15.079205 C36.8224823,15.0329962 36.9832317,14.9623145 37.1815692,14.8673208 C37.3797468,14.772327 37.5200226,14.7248302 37.6022368,14.7248302 C37.753869,14.7248302 37.8831083,14.7806994 37.9896347,14.8921157 C38.0960012,15.0036931 38.1492645,15.1461836 38.1492645,15.3200704 C38.1492645,15.5276075 38.0476964,15.7137308 37.8444005,15.8782792 C37.6412645,16.0431497 37.3784672,16.1708277 37.0563287,16.2609912 C36.7340302,16.3514767 36.4032544,16.3967195 36.0636813,16.3967195 C35.5929496,16.3967195 35.1802796,16.2899723 34.8255113,16.076156 C34.4705831,15.8625006 34.1993085,15.5710792 34.0113677,15.2018918 C33.8234269,14.8327044 33.7295365,14.4210113 33.7295365,13.9671346 C33.7295365,13.6462491 33.7861587,13.3395321 33.8995629,13.0465006 C34.0129672,12.7537912 34.1751561,12.492478 34.3859697,12.262722 C34.5969433,12.032966 34.845505,11.853605 35.1314949,11.724639 C35.4174849,11.595834 35.728107,11.5312704 36.0636813,11.5312704 C36.4825894,11.5312704 36.8559118,11.6380176 37.1836486,11.8515119 C37.5113854,12.0651673 37.7657053,12.3478943 37.9467682,12.7000151 C38.1276713,13.0521358 38.2180428,13.4256704 38.2180428,13.8204579 C38.2180428,14.0444176 38.1673388,14.1978566 38.0656108,14.2802918 C37.9640428,14.3628881 37.798335,14.4042667 37.5688073,14.4042667 L37.5688073,14.4042667 Z" id="Fill-8" fill="#FFFFFE"></path>
                    <path d="M40.5710617,12.8294642 C40.2839521,12.8294642 40.0597027,12.9395925 39.8979937,13.1601711 C39.7364446,13.3807497 39.65567,13.6496302 39.65567,13.9671346 C39.65567,14.2790038 39.738364,14.5456302 39.9042318,14.7666918 C40.0702595,14.9880755 40.2924295,15.0985258 40.5710617,15.0985258 C40.8568917,15.0985258 41.0822607,14.9914566 41.2473287,14.7773183 C41.4123967,14.5631799 41.4950907,14.2930113 41.4950907,13.9671346 C41.4950907,13.6343346 41.414476,13.3614289 41.2535667,13.1487396 C41.0926574,12.9358893 40.865209,12.8294642 40.5710617,12.8294642 Z M38.6531058,12.6430189 C38.8218526,12.3206843 39.0532998,12.0590491 39.347927,11.8581132 C39.6423942,11.6570164 39.9616537,11.5481761 40.3057053,11.5312704 C40.7905126,11.5312704 41.1870277,11.6607195 41.4950907,11.9191346 L41.4950907,10.3100377 C41.4950907,10.0999245 41.5619496,9.93392703 41.6956675,9.81220627 C41.8292255,9.69032453 41.9851763,9.62946415 42.1633602,9.62946415 C42.3500214,9.62946415 42.5075718,9.69145156 42.6364912,9.81542642 C42.7652506,9.93924024 42.8297103,10.112644 42.8297103,10.3349937 L42.8297103,15.6172881 C42.8297103,15.7852176 42.7756473,15.9375296 42.6678413,16.0740629 C42.5597153,16.2107572 42.4085629,16.2878792 42.2135844,16.306073 C42.0254836,16.306073 41.8727317,16.2572881 41.7550088,16.1597183 C41.6374458,16.0623094 41.5625894,15.9665107 41.5305995,15.872322 C41.2702015,16.2220277 40.8904811,16.3967195 40.3917582,16.3967195 C40.0769773,16.3967195 39.7924269,16.3299019 39.5381071,16.1959447 C39.2839471,16.0623094 39.0680151,15.8802113 38.8904711,15.6496503 C38.712767,15.4192503 38.57633,15.1609962 38.48084,14.87521 C38.3853502,14.5892629 38.3320869,14.2930113 38.3210504,13.9861333 C38.3391247,13.4424151 38.4498098,12.9948176 38.6531058,12.6430189 L38.6531058,12.6430189 Z" id="Fill-9" fill="#FFFFFE"></path>
                    <path d="M48.3618879,12.3069987 C48.8142255,11.7900075 49.4210743,11.5312704 50.1821145,11.5312704 C50.4118025,11.5481761 50.6326925,11.5844025 50.844946,11.6404327 C51.057039,11.6964629 51.241781,11.7900075 51.3991715,11.9213887 C51.556242,12.0527698 51.634937,12.2264956 51.634937,12.4416 C51.634937,12.6011572 51.5890315,12.7393006 51.4970605,12.8560302 C51.4050895,12.9727598 51.283208,13.0353912 51.1314155,13.0437635 C51.107583,13.0437635 51.0845505,13.0493987 51.0623175,13.0605082 C50.9732255,13.0508478 50.8262315,13.0097912 50.6211765,12.9376604 C50.416441,12.8653685 50.2528125,12.8294642 50.130131,12.8294642 C49.8305454,12.8294642 49.5915806,12.9352453 49.4132368,13.1468075 C49.234733,13.3585308 49.145801,13.6375547 49.145801,13.9838792 C49.145801,14.5066667 49.3281436,14.8536352 49.6934685,15.0244629 C49.7699244,15.0581132 49.8980441,15.0870943 50.0779875,15.1109233 C50.307835,15.0954667 50.5189685,15.0528 50.711228,14.9827623 C50.7417785,14.9742289 50.7990405,14.9550692 50.882534,14.9248 C50.9661875,14.8948528 51.026169,14.8797183 51.0623175,14.8797183 C51.165485,14.8797183 51.261135,14.9075723 51.349747,14.9629585 C51.438199,15.0181836 51.507777,15.0920855 51.558801,15.1849862 C51.609505,15.2774038 51.634937,15.3762617 51.634937,15.4813987 C51.634937,15.871356 51.296004,16.153439 50.618457,16.3273258 C50.3594985,16.3735346 50.1570025,16.3967195 50.0109685,16.3967195 C49.6949081,16.3967195 49.40316,16.332478 49.1352444,16.204478 C48.8674886,16.076317 48.6341222,15.897922 48.4349849,15.6694541 C48.2360075,15.4411472 48.0824559,15.1833761 47.9746498,14.8963019 C47.8668439,14.6087447 47.8073426,14.3057308 47.7961461,13.9861333 C47.8073426,13.6512402 47.863005,13.3351849 47.9631335,13.0381283 C48.0632619,12.7412327 48.1963401,12.4974692 48.3618879,12.3069987" id="Fill-10" fill="#FFFFFE"></path>
                    <path d="M54.016747,15.0985258 C54.207247,15.0985258 54.371195,15.0487749 54.508112,14.9491119 C54.645189,14.8494491 54.7483565,14.7133987 54.8180945,14.541122 C54.8875125,14.3691673 54.9223815,14.1778918 54.9223815,13.9671346 C54.9223815,13.6427069 54.844486,13.3739874 54.688695,13.1612981 C54.5329045,12.9484478 54.308815,12.8378365 54.016747,12.8294642 C53.723399,12.8294642 53.4975505,12.9386264 53.33984,13.1571119 C53.18181,13.3754365 53.1029545,13.645605 53.1029545,13.9671346 C53.1029545,14.28319 53.1803705,14.5514264 53.3356815,14.772005 C53.4906725,14.9924226 53.7059645,15.1068981 53.981398,15.1154315 C53.9897155,15.1085082 53.997073,15.103839 54.003311,15.1017459 C54.009549,15.0996528 54.013868,15.0985258 54.016747,15.0985258 Z M54.016747,16.3967195 C53.568728,16.3967195 53.1736525,16.2909383 52.83216,16.0792151 C52.4903475,15.8678138 52.2275505,15.5767145 52.043928,15.205917 C51.860306,14.8356025 51.768335,14.4224604 51.768335,13.9671346 C51.768335,13.6295044 51.8204785,13.311839 51.9249255,13.0141383 C52.029213,12.7162767 52.1800455,12.4564126 52.3769435,12.2342239 C52.5738415,12.0121962 52.8118465,11.8395975 53.0909585,11.7164277 C53.3700705,11.5930968 53.6787735,11.5312704 54.016747,11.5312704 C54.4594875,11.5369057 54.850884,11.6499321 55.191097,11.8708327 C55.53147,12.0915723 55.794107,12.3868579 55.979169,12.7565283 C56.1643905,13.1263598 56.2570015,13.5300025 56.2570015,13.9671346 C56.2526825,14.2936553 56.1986195,14.6024654 56.0941725,14.8940478 C55.9897255,15.1854692 55.839213,15.4446893 55.6431145,15.6717082 C55.4468565,15.898727 55.209971,16.076317 54.9324585,16.204478 C54.654626,16.332478 54.349442,16.3967195 54.016747,16.3967195 L54.016747,16.3967195 Z" id="Fill-11" fill="#FFFFFE"></path>
                    <path d="M56.6938235,15.6172881 L56.6938235,12.3222943 C56.6938235,12.1292478 56.759243,11.9634113 56.890242,11.8247849 C57.0210805,11.6861585 57.178311,11.6167648 57.362253,11.6167648 C57.5389975,11.6167648 57.683432,11.6603975 57.7955565,11.7475019 C57.9076815,11.8347673 57.985097,11.9379723 58.0284435,12.0576 C58.1383285,11.8933736 58.3006775,11.7645685 58.51533,11.6713459 C58.7303025,11.5779623 58.9523125,11.5312704 59.18184,11.5312704 C59.728228,11.5312704 60.141058,11.7185208 60.42065,12.0933434 C60.5110215,12.0287799 60.623946,11.9490817 60.7589435,11.85441 C60.893941,11.7597383 61.046053,11.6822943 61.2154395,11.621917 C61.3843465,11.5615396 61.5874825,11.5312704 61.824048,11.5312704 C62.109558,11.545278 62.3675565,11.6072654 62.597884,11.7170717 C62.8283715,11.827039 63.014873,11.9983497 63.157548,12.2314868 C63.300383,12.4646239 63.3717205,12.7589434 63.3717205,13.1144453 L63.3717205,15.6172881 C63.3717205,15.8135547 63.31014,15.9771371 63.1869785,16.1088402 C63.0634975,16.2403824 62.903388,16.306073 62.70553,16.306073 C62.5147105,16.306073 62.3557205,16.2400604 62.2282405,16.1078742 C62.1007605,15.9758491 62.037101,15.8124277 62.037101,15.6179321 L62.037101,13.4862088 C62.037101,13.260961 61.9779195,13.0701685 61.8595565,12.9135094 C61.741194,12.7568503 61.578365,12.6784402 61.3709105,12.6784402 C61.163616,12.6784402 61.0001475,12.7571723 60.881145,12.9144755 C60.7621425,13.0719396 60.702641,13.2625711 60.702641,13.4862088 L60.702641,15.6179321 C60.702641,15.8138767 60.6409005,15.9774591 60.5177395,16.1090013 C60.394418,16.2403824 60.2341485,16.306073 60.036451,16.306073 C59.845471,16.306073 59.686481,16.2400604 59.5590015,16.1078742 C59.4315215,15.9758491 59.3680215,15.8124277 59.3680215,15.6179321 L59.3680215,13.4862088 C59.3680215,13.260961 59.3082005,13.0701685 59.188878,12.9135094 C59.0693955,12.7568503 58.9076865,12.6784402 58.7034305,12.6784402 C58.496616,12.6784402 58.3321875,12.7571723 58.210786,12.9144755 C58.089224,13.0719396 58.0284435,13.2625711 58.0284435,13.4862088 L58.0284435,15.6179321 C58.0284435,15.8138767 57.966703,15.9774591 57.8437015,16.1090013 C57.7202205,16.2403824 57.559951,16.306073 57.362253,16.306073 C57.171433,16.306073 57.0122835,16.2398994 56.8849635,16.1077132 C56.7574835,15.975527 56.6938235,15.8119447 56.6938235,15.6172881" id="Fill-12" fill="#FFFFFE"></path>
                    <path d="M55.575776,2.35342893 C52.929729,0.707300627 49.6629182,0.062309434 46.6192368,0.0273710692 C43.3879345,-0.00966037736 39.8795995,0.648372325 37.0887985,2.42877987 C35.8930151,3.19178868 33.683791,4.97235722 34.8336688,6.5481258 C36.1786851,8.3921308 39.1329547,8.14160505 41.0635466,7.63250316 C42.043398,7.37537608 44.7870139,6.64311948 44.7097582,5.37889811 C44.6365013,4.18712956 42.3757733,4.25748931 41.5013287,4.33235723 C40.1171247,4.45005283 39.3309723,3.54439245 40.4883678,2.76673208 C42.4221587,1.46918239 51.139413,0.423768553 50.232019,4.22512704 C49.9241158,5.51221132 47.5597406,6.12242514 46.5112708,6.72201259 C45.4848741,7.30936354 44.1617708,8.14772325 43.9683917,9.29360505 C43.8780201,9.82830693 44.1057884,10.4736201 44.5362128,10.9229887 C44.8348388,11.2348579 45.2299144,11.4518943 45.685131,11.4737912 C46.7406385,11.5237032 47.5232721,10.60001 48.0469471,9.91943646 C49.4588224,8.08283774 51.565199,8.18475472 53.819849,7.92553458 C55.194136,7.76855344 57.2629245,7.50160505 57.934073,6.27264401 C58.7861245,4.71152704 56.8747265,3.16184151 55.575776,2.35342893" id="Fill-13" fill="#84BF41"></path>
                    <path d="M46.9552909,14.9407396 C46.9552909,15.7134088 46.3324471,16.3402063 45.564529,16.3402063 C44.795971,16.3402063 44.1732872,15.7134088 44.1732872,14.9407396 C44.1732872,14.1672654 44.795971,13.5404679 45.564529,13.5404679 C46.3324471,13.5404679 46.9552909,14.1672654 46.9552909,14.9407396" id="Fill-14" fill="#84BF41"></path>
                </g>
            </g>
            <rect id="Rectangle" fill="#133407" fill-rule="nonzero" x="0" y="247.30566" width="360" height="8.69433962"></rect>
        </g>
    </g>
</svg>